<mxfile host="app.diagrams.net" modified="2023-08-27T06:13:07.214Z" agent="Mozilla/5.0 (Windows NT 10.0; Win64; x64) AppleWebKit/537.36 (KHTML, like Gecko) Chrome/116.0.0.0 Safari/537.36" etag="gAZD6WOHnqbyZcdlBIp8" version="21.6.9" type="device">
  <diagram id="oBAxDAVBi5Wuo-0X9EN9" name="BSC">
    <mxGraphModel dx="1434" dy="750" grid="1" gridSize="10" guides="1" tooltips="1" connect="1" arrows="1" fold="1" page="1" pageScale="1" pageWidth="1169" pageHeight="827" math="0" shadow="0">
      <root>
        <mxCell id="0" />
        <mxCell id="1" parent="0" />
        <mxCell id="oDx8xKnsDObGUWZVN4sO-1" value=":Object" style="shape=umlLifeline;perimeter=lifelinePerimeter;whiteSpace=wrap;html=1;container=1;collapsible=0;recursiveResize=0;outlineConnect=0;" parent="1" vertex="1">
          <mxGeometry x="80" y="70" width="100" height="700" as="geometry" />
        </mxCell>
        <mxCell id="oDx8xKnsDObGUWZVN4sO-2" value=":Object" style="shape=umlLifeline;perimeter=lifelinePerimeter;whiteSpace=wrap;html=1;container=1;collapsible=0;recursiveResize=0;outlineConnect=0;" parent="1" vertex="1">
          <mxGeometry x="240" y="70" width="100" height="700" as="geometry" />
        </mxCell>
        <mxCell id="oDx8xKnsDObGUWZVN4sO-11" value="" style="html=1;points=[];perimeter=orthogonalPerimeter;" parent="oDx8xKnsDObGUWZVN4sO-2" vertex="1">
          <mxGeometry x="45" y="110" width="10" height="80" as="geometry" />
        </mxCell>
        <mxCell id="oDx8xKnsDObGUWZVN4sO-3" value=":Object" style="shape=umlLifeline;perimeter=lifelinePerimeter;whiteSpace=wrap;html=1;container=1;collapsible=0;recursiveResize=0;outlineConnect=0;" parent="1" vertex="1">
          <mxGeometry x="560" y="70" width="100" height="700" as="geometry" />
        </mxCell>
        <mxCell id="oDx8xKnsDObGUWZVN4sO-4" value=":Object" style="shape=umlLifeline;perimeter=lifelinePerimeter;whiteSpace=wrap;html=1;container=1;collapsible=0;recursiveResize=0;outlineConnect=0;" parent="1" vertex="1">
          <mxGeometry x="720" y="70" width="100" height="700" as="geometry" />
        </mxCell>
        <mxCell id="oDx8xKnsDObGUWZVN4sO-5" value=":Object" style="shape=umlLifeline;perimeter=lifelinePerimeter;whiteSpace=wrap;html=1;container=1;collapsible=0;recursiveResize=0;outlineConnect=0;" parent="1" vertex="1">
          <mxGeometry x="880" y="70" width="100" height="700" as="geometry" />
        </mxCell>
        <mxCell id="oDx8xKnsDObGUWZVN4sO-6" value=":Object" style="shape=umlLifeline;perimeter=lifelinePerimeter;whiteSpace=wrap;html=1;container=1;collapsible=0;recursiveResize=0;outlineConnect=0;" parent="1" vertex="1">
          <mxGeometry x="1040" y="70" width="100" height="700" as="geometry" />
        </mxCell>
        <mxCell id="oDx8xKnsDObGUWZVN4sO-7" value=":Object" style="shape=umlLifeline;perimeter=lifelinePerimeter;whiteSpace=wrap;html=1;container=1;collapsible=0;recursiveResize=0;outlineConnect=0;" parent="1" vertex="1">
          <mxGeometry x="400" y="70" width="100" height="700" as="geometry" />
        </mxCell>
        <mxCell id="BE3FJ9vVutAhrZiQv2-s-1" value="" style="html=1;points=[];perimeter=orthogonalPerimeter;" vertex="1" parent="oDx8xKnsDObGUWZVN4sO-7">
          <mxGeometry x="45" y="124" width="10" height="20" as="geometry" />
        </mxCell>
        <mxCell id="oDx8xKnsDObGUWZVN4sO-12" value="1.Action" style="html=1;verticalAlign=bottom;startArrow=oval;endArrow=block;startSize=8;rounded=0;exitX=0.49;exitY=0.16;exitDx=0;exitDy=0;exitPerimeter=0;" parent="1" source="oDx8xKnsDObGUWZVN4sO-1" target="oDx8xKnsDObGUWZVN4sO-11" edge="1">
          <mxGeometry relative="1" as="geometry">
            <mxPoint x="225" y="180" as="sourcePoint" />
          </mxGeometry>
        </mxCell>
        <mxCell id="oDx8xKnsDObGUWZVN4sO-15" value="Commentaire" style="shape=note;whiteSpace=wrap;html=1;size=14;verticalAlign=top;align=left;spacingTop=-6;rounded=0;shadow=0;comic=0;labelBackgroundColor=none;strokeWidth=1;fontFamily=Verdana;fontSize=12;fillColor=#fff2cc;strokeColor=#d6b656;" parent="1" vertex="1">
          <mxGeometry x="160" y="300" width="110" height="60" as="geometry" />
        </mxCell>
        <mxCell id="oDx8xKnsDObGUWZVN4sO-19" value="" style="endArrow=none;dashed=1;html=1;rounded=0;entryX=0;entryY=0;entryDx=103;entryDy=7;entryPerimeter=0;exitX=0.2;exitY=0.775;exitDx=0;exitDy=0;exitPerimeter=0;" parent="1" edge="1" target="oDx8xKnsDObGUWZVN4sO-15" source="oDx8xKnsDObGUWZVN4sO-11">
          <mxGeometry width="50" height="50" relative="1" as="geometry">
            <mxPoint x="290" y="230" as="sourcePoint" />
            <mxPoint x="330" y="180" as="targetPoint" />
          </mxGeometry>
        </mxCell>
        <mxCell id="BE3FJ9vVutAhrZiQv2-s-2" value="" style="endArrow=block;html=1;rounded=0;fontFamily=Helvetica;fontSize=12;fontColor=default;endFill=1;" edge="1" parent="1">
          <mxGeometry width="50" height="50" relative="1" as="geometry">
            <mxPoint x="289.5" y="196" as="sourcePoint" />
            <mxPoint x="449.5" y="196" as="targetPoint" />
          </mxGeometry>
        </mxCell>
        <mxCell id="BE3FJ9vVutAhrZiQv2-s-3" value="" style="endArrow=block;html=1;rounded=0;labelBackgroundColor=default;fontFamily=Helvetica;fontSize=12;fontColor=default;shape=connector;dashed=1;endFill=1;" edge="1" parent="1" target="oDx8xKnsDObGUWZVN4sO-2">
          <mxGeometry width="50" height="50" relative="1" as="geometry">
            <mxPoint x="450" y="210" as="sourcePoint" />
            <mxPoint x="500" y="160" as="targetPoint" />
          </mxGeometry>
        </mxCell>
      </root>
    </mxGraphModel>
  </diagram>
</mxfile>
